ffmpeg started on 2025-06-27 at 10:05:52
Report written to "D:\Convert\FFMetrics\reports\ssim_report-6.txt"
Log level: 32
Command line:
ffmpeg -hide_banner -nostdin -i "G:\\\xc0\xed\xe8\xec\xe5\\[\xd2\xee\xef-4]\\\xd2\xee\xea\xe8\xe9\xf1\xea\xe8\xe9 \xc3\xf3\xeb\xfc\\\xd2\xc2-4\\Tokyo_Ghoul_Re_[02]_[AniLibria_TV]_[HDTVRip_720p]_HEVC.mkv" -i "G:\\\xc0\xed\xe8\xec\xe5\\[\xd2\xee\xef-4]\\\xd2\xee\xea\xe8\xe9\xf1\xea\xe8\xe9 \xc3\xf3\xeb\xfc\\\xd2\xc2-4\\Tokyo_Ghoul_Re_[02]_[AniLibria_TV]_[HDTVRip_720p].mkv" -lavfi "[0:v]settb=AVTB,setpts=PTS-STARTPTS,format=pix_fmts=yuv420p10,fps=24000/1001,scale=1280:720:flags=bicubic[main];[1:v]settb=AVTB,setpts=PTS-STARTPTS,format=pix_fmts=yuv420p,fps=24000/1001,scale=1280:720:flags=bicubic[ref];[main][ref]ssim=eof_action=endall:stats_file='D\\:/Convert/FFMetrics/logs/ssim_logfile-6.txt'" -f null -
Input #0, matroska,webm, from 'G:\Аниме\[Топ-4]\Токийский Гуль\ТВ-4\Tokyo_Ghoul_Re_[02]_[AniLibria_TV]_[HDTVRip_720p]_HEVC.mkv':
  Metadata:
    ENCODER         : Lavf61.7.100
  Duration: 00:24:29.97, start: -0.021000, bitrate: 646 kb/s
  Stream #0:0(jpn): Video: hevc (Main 10), yuv420p10le(tv, bt709, progressive), 1280x720 [SAR 1:1 DAR 16:9], 23.98 fps, 23.98 tbr, 1k tbn (default)
      Metadata:
        ENCODER         : Lavc61.19.100 libx265
        BPS             : 448691
        DURATION        : 00:24:29.968708333
        NUMBER_OF_FRAMES: 35244
        NUMBER_OF_BYTES : 82445226
        _STATISTICS_WRITING_APP: mkvpropedit v66.0.0 ('Josie') 64-bit
        _STATISTICS_WRITING_DATE_UTC: 2025-06-26 13:16:49
        _STATISTICS_TAGS: BPS DURATION NUMBER_OF_FRAMES NUMBER_OF_BYTES
  Stream #0:1(rus): Audio: aac (LC), 48000 Hz, stereo, fltp (default) (forced)
      Metadata:
        title           : Lupin, Silv, December & MyAska
        ENCODER         : Lavc61.19.100 aac
        BPS             : 193938
        DURATION        : 00:24:29.930000000
        NUMBER_OF_FRAMES: 68904
        NUMBER_OF_BYTES : 35634581
        _STATISTICS_WRITING_APP: mkvpropedit v66.0.0 ('Josie') 64-bit
        _STATISTICS_WRITING_DATE_UTC: 2025-06-26 13:16:49
        _STATISTICS_TAGS: BPS DURATION NUMBER_OF_FRAMES NUMBER_OF_BYTES
  Stream #0:2(rus): Subtitle: ass (ssa) (default) (forced)
      Metadata:
        title           : Надписи
        BPS             : 39
        DURATION        : 00:23:20.440000000
        NUMBER_OF_FRAMES: 46
        NUMBER_OF_BYTES : 6938
        _STATISTICS_WRITING_APP: mkvpropedit v66.0.0 ('Josie') 64-bit
        _STATISTICS_WRITING_DATE_UTC: 2025-06-26 13:16:49
        _STATISTICS_TAGS: BPS DURATION NUMBER_OF_FRAMES NUMBER_OF_BYTES
  Stream #0:3(rus): Subtitle: ass (ssa)
      Metadata:
        title           : Субтитры
        BPS             : 158
        DURATION        : 00:24:17.250000000
        NUMBER_OF_FRAMES: 319
        NUMBER_OF_BYTES : 28781
        _STATISTICS_WRITING_APP: mkvpropedit v66.0.0 ('Josie') 64-bit
        _STATISTICS_WRITING_DATE_UTC: 2025-06-26 13:16:49
        _STATISTICS_TAGS: BPS DURATION NUMBER_OF_FRAMES NUMBER_OF_BYTES
Input #1, matroska,webm, from 'G:\Аниме\[Топ-4]\Токийский Гуль\ТВ-4\Tokyo_Ghoul_Re_[02]_[AniLibria_TV]_[HDTVRip_720p].mkv':
  Metadata:
    encoder         : libebml v1.4.2 + libmatroska v1.6.4
    creation_time   : 2024-12-27T09:44:09.000000Z
  Duration: 00:24:29.97, start: 0.000000, bitrate: 1911 kb/s
  Stream #1:0(jpn): Video: h264 (Main), yuv420p(tv, bt709, progressive), 1280x720, SAR 1:1 DAR 16:9, 23.98 fps, 23.98 tbr, 1k tbn (default)
      Metadata:
        BPS             : 1711501
        DURATION        : 00:24:29.969000000
        NUMBER_OF_FRAMES: 35244
        NUMBER_OF_BYTES : 314481796
        _STATISTICS_WRITING_APP: mkvmerge v66.0.0 ('Josie') 64-bit
        _STATISTICS_WRITING_DATE_UTC: 2024-12-27 09:44:09
        _STATISTICS_TAGS: BPS DURATION NUMBER_OF_FRAMES NUMBER_OF_BYTES
  Stream #1:1(rus): Audio: aac (LC), 48000 Hz, stereo, fltp (default) (forced)
      Metadata:
        title           : Lupin, Silv, December & MyAska
        BPS             : 192093
        DURATION        : 00:24:29.930000000
        NUMBER_OF_FRAMES: 68903
        NUMBER_OF_BYTES : 35295492
        _STATISTICS_WRITING_APP: mkvmerge v66.0.0 ('Josie') 64-bit
        _STATISTICS_WRITING_DATE_UTC: 2024-12-27 09:44:09
        _STATISTICS_TAGS: BPS DURATION NUMBER_OF_FRAMES NUMBER_OF_BYTES
  Stream #1:2(rus): Subtitle: ass (ssa) (default) (forced)
      Metadata:
        title           : Надписи
        BPS             : 39
        DURATION        : 00:23:20.440000000
        NUMBER_OF_FRAMES: 46
        NUMBER_OF_BYTES : 6938
        _STATISTICS_WRITING_APP: mkvmerge v66.0.0 ('Josie') 64-bit
        _STATISTICS_WRITING_DATE_UTC: 2024-12-27 09:44:09
        _STATISTICS_TAGS: BPS DURATION NUMBER_OF_FRAMES NUMBER_OF_BYTES
  Stream #1:3(rus): Subtitle: ass (ssa)
      Metadata:
        title           : Субтитры
        BPS             : 158
        DURATION        : 00:24:17.250000000
        NUMBER_OF_FRAMES: 319
        NUMBER_OF_BYTES : 28781
        _STATISTICS_WRITING_APP: mkvmerge v66.0.0 ('Josie') 64-bit
        _STATISTICS_WRITING_DATE_UTC: 2024-12-27 09:44:09
        _STATISTICS_TAGS: BPS DURATION NUMBER_OF_FRAMES NUMBER_OF_BYTES
  Stream #1:4: Attachment: ttf
      Metadata:
        filename        : REDOCTOB.otf
        mimetype        : application/x-truetype-font
  Stream #1:5: Attachment: ttf
      Metadata:
        filename        : Snowstorm.ttf
        mimetype        : application/x-truetype-font
  Stream #1:6: Attachment: ttf
      Metadata:
        filename        : TEMPSITC.TTF
        mimetype        : application/x-truetype-font
  Stream #1:7: Attachment: otf
      Metadata:
        filename        : TrajanPro3-Bold.otf
        mimetype        : application/vnd.ms-opentype
  Stream #1:8: Attachment: otf
      Metadata:
        filename        : TrajanPro3-Regular.otf
        mimetype        : application/vnd.ms-opentype
  Stream #1:9: Attachment: ttf
      Metadata:
        filename        : XENI.TTF
        mimetype        : application/x-truetype-font
  Stream #1:10: Attachment: ttf
      Metadata:
        filename        : Aero Matics Display Bold Italic.ttf
        mimetype        : application/x-truetype-font
  Stream #1:11: Attachment: ttf
      Metadata:
        filename        : Aero Matics Display Bold.ttf
        mimetype        : application/x-truetype-font
  Stream #1:12: Attachment: ttf
      Metadata:
        filename        : Aero Matics Display Italic.ttf
        mimetype        : application/x-truetype-font
  Stream #1:13: Attachment: ttf
      Metadata:
        filename        : Aero Matics Display Light Italic.ttf
        mimetype        : application/x-truetype-font
  Stream #1:14: Attachment: ttf
      Metadata:
        filename        : Aero Matics Display Light.ttf
        mimetype        : application/x-truetype-font
  Stream #1:15: Attachment: ttf
      Metadata:
        filename        : Aero_Matics_Display_Regular.ttf
        mimetype        : application/x-truetype-font
  Stream #1:16: Attachment: ttf
      Metadata:
        filename        : OpenSanA.ttf
        mimetype        : application/x-truetype-font
Stream mapping:
  Stream #0:0 (hevc) -> settb:default
  Stream #1:0 (h264) -> settb:default
  ssim:default -> Stream #0:0 (wrapped_avframe)
  Stream #0:1 -> #0:1 (aac (native) -> pcm_s16le (native))
Output #0, null, to 'pipe:':
  Metadata:
    encoder         : Lavf61.7.100
  Stream #0:0: Video: wrapped_avframe, yuv420p10le(tv, bt709, progressive), 1280x720 [SAR 1:1 DAR 16:9], q=2-31, 200 kb/s, 23.98 fps, 23.98 tbn
      Metadata:
        encoder         : Lavc61.19.100 wrapped_avframe
  Stream #0:1(rus): Audio: pcm_s16le, 48000 Hz, stereo, s16, 1536 kb/s (default) (forced)
      Metadata:
        title           : Lupin, Silv, December & MyAska
        _STATISTICS_TAGS: BPS DURATION NUMBER_OF_FRAMES NUMBER_OF_BYTES
        BPS             : 193938
        DURATION        : 00:24:29.930000000
        NUMBER_OF_FRAMES: 68904
        NUMBER_OF_BYTES : 35634581
        _STATISTICS_WRITING_APP: mkvpropedit v66.0.0 ('Josie') 64-bit
        _STATISTICS_WRITING_DATE_UTC: 2025-06-26 13:16:49
        encoder         : Lavc61.19.100 pcm_s16le
frame=  337 fps=0.0 q=-0.0 size=N/A time=00:00:14.05 bitrate=N/A speed=27.2x    frame=  732 fps=710 q=-0.0 size=N/A time=00:00:30.53 bitrate=N/A speed=29.6x    frame= 1130 fps=732 q=-0.0 size=N/A time=00:00:47.13 bitrate=N/A speed=30.5x    frame= 1471 fps=710 q=-0.0 size=N/A time=00:01:01.35 bitrate=N/A speed=29.6x    frame= 1759 fps=681 q=-0.0 size=N/A time=00:01:13.36 bitrate=N/A speed=28.4x    frame= 2131 fps=689 q=-0.0 size=N/A time=00:01:28.88 bitrate=N/A speed=28.7x    frame= 2414 fps=668 q=-0.0 size=N/A time=00:01:40.68 bitrate=N/A speed=27.9x    frame= 2752 fps=667 q=-0.0 size=N/A time=00:01:54.78 bitrate=N/A speed=27.8x    frame= 3090 fps=665 q=-0.0 size=N/A time=00:02:08.87 bitrate=N/A speed=27.7x    frame= 3474 fps=674 q=-0.0 size=N/A time=00:02:24.89 bitrate=N/A speed=28.1x    frame= 3778 fps=665 q=-0.0 size=N/A time=00:02:37.57 bitrate=N/A speed=27.7x    frame= 4177 fps=675 q=-0.0 size=N/A time=00:02:54.21 bitrate=N/A speed=28.2x    frame= 4569 fps=681 q=-0.0 size=N/A time=00:03:10.56 bitrate=N/A speed=28.4x    frame= 5008 fps=693 q=-0.0 size=N/A time=00:03:28.87 bitrate=N/A speed=28.9x    frame= 5453 fps=705 q=-0.0 size=N/A time=00:03:47.43 bitrate=N/A speed=29.4x    frame= 5947 fps=720 q=-0.0 size=N/A time=00:04:08.03 bitrate=N/A speed=  30x    frame= 6269 fps=715 q=-0.0 size=N/A time=00:04:21.46 bitrate=N/A speed=29.8x    frame= 6646 fps=715 q=-0.0 size=N/A time=00:04:37.19 bitrate=N/A speed=29.8x    frame= 7182 fps=733 q=-0.0 size=N/A time=00:04:59.54 bitrate=N/A speed=30.6x    frame= 7657 fps=742 q=-0.0 size=N/A time=00:05:19.36 bitrate=N/A speed=30.9x    frame= 8083 fps=746 q=-0.0 size=N/A time=00:05:37.12 bitrate=N/A speed=31.1x    frame= 8442 fps=744 q=-0.0 size=N/A time=00:05:52.10 bitrate=N/A speed=  31x    frame= 8879 fps=748 q=-0.0 size=N/A time=00:06:10.32 bitrate=N/A speed=31.2x    frame= 9405 fps=760 q=-0.0 size=N/A time=00:06:32.26 bitrate=N/A speed=31.7x    frame= 9920 fps=770 q=-0.0 size=N/A time=00:06:53.74 bitrate=N/A speed=32.1x    frame=10444 fps=779 q=-0.0 size=N/A time=00:07:15.60 bitrate=N/A speed=32.5x    frame=10927 fps=785 q=-0.0 size=N/A time=00:07:35.74 bitrate=N/A speed=32.7x    frame=11479 fps=795 q=-0.0 size=N/A time=00:07:58.76 bitrate=N/A speed=33.1x    frame=11930 fps=798 q=-0.0 size=N/A time=00:08:17.58 bitrate=N/A speed=33.3x    frame=12479 fps=807 q=-0.0 size=N/A time=00:08:40.47 bitrate=N/A speed=33.6x    frame=12975 fps=812 q=-0.0 size=N/A time=00:09:01.16 bitrate=N/A speed=33.8x    frame=13438 fps=814 q=-0.0 size=N/A time=00:09:20.47 bitrate=N/A speed=  34x    frame=13979 fps=822 q=-0.0 size=N/A time=00:09:43.04 bitrate=N/A speed=34.3x    frame=14561 fps=830 q=-0.0 size=N/A time=00:10:07.31 bitrate=N/A speed=34.6x    frame=15077 fps=835 q=-0.0 size=N/A time=00:10:28.83 bitrate=N/A speed=34.8x    frame=15590 fps=840 q=-0.0 size=N/A time=00:10:50.23 bitrate=N/A speed=  35x    frame=16001 fps=839 q=-0.0 size=N/A time=00:11:07.37 bitrate=N/A speed=  35x    frame=16560 fps=845 q=-0.0 size=N/A time=00:11:30.69 bitrate=N/A speed=35.2x    frame=17049 fps=848 q=-0.0 size=N/A time=00:11:51.08 bitrate=N/A speed=35.3x    frame=17578 fps=852 q=-0.0 size=N/A time=00:12:13.14 bitrate=N/A speed=35.5x    frame=18081 fps=855 q=-0.0 size=N/A time=00:12:34.12 bitrate=N/A speed=35.7x    frame=18585 fps=858 q=-0.0 size=N/A time=00:12:55.14 bitrate=N/A speed=35.8x    frame=19113 fps=862 q=-0.0 size=N/A time=00:13:17.17 bitrate=N/A speed=35.9x    frame=19584 fps=863 q=-0.0 size=N/A time=00:13:36.81 bitrate=N/A speed=  36x    frame=20080 fps=865 q=-0.0 size=N/A time=00:13:57.50 bitrate=N/A speed=36.1x    frame=20489 fps=864 q=-0.0 size=N/A time=00:14:14.56 bitrate=N/A speed=  36x    frame=21016 fps=867 q=-0.0 size=N/A time=00:14:36.54 bitrate=N/A speed=36.2x    frame=21447 fps=866 q=-0.0 size=N/A time=00:14:54.51 bitrate=N/A speed=36.1x    frame=21827 fps=864 q=-0.0 size=N/A time=00:15:10.36 bitrate=N/A speed=  36x    frame=22366 fps=867 q=-0.0 size=N/A time=00:15:32.84 bitrate=N/A speed=36.2x    frame=22893 fps=870 q=-0.0 size=N/A time=00:15:54.82 bitrate=N/A speed=36.3x    frame=23420 fps=873 q=-0.0 size=N/A time=00:16:16.80 bitrate=N/A speed=36.4x    frame=23904 fps=875 q=-0.0 size=N/A time=00:16:36.99 bitrate=N/A speed=36.5x    frame=24409 fps=877 q=-0.0 size=N/A time=00:16:58.05 bitrate=N/A speed=36.6x    frame=24961 fps=880 q=-0.0 size=N/A time=00:17:21.08 bitrate=N/A speed=36.7x    frame=25574 fps=886 q=-0.0 size=N/A time=00:17:46.64 bitrate=N/A speed=36.9x    frame=26155 fps=890 q=-0.0 size=N/A time=00:18:10.88 bitrate=N/A speed=37.1x    frame=26686 fps=892 q=-0.0 size=N/A time=00:18:33.02 bitrate=N/A speed=37.2x    frame=27211 fps=894 q=-0.0 size=N/A time=00:18:54.92 bitrate=N/A speed=37.3x    frame=27677 fps=895 q=-0.0 size=N/A time=00:19:14.36 bitrate=N/A speed=37.3x    frame=28203 fps=897 q=-0.0 size=N/A time=00:19:36.30 bitrate=N/A speed=37.4x    frame=28671 fps=897 q=-0.0 size=N/A time=00:19:55.81 bitrate=N/A speed=37.4x    frame=29111 fps=896 q=-0.0 size=N/A time=00:20:14.17 bitrate=N/A speed=37.4x    frame=29634 fps=898 q=-0.0 size=N/A time=00:20:35.98 bitrate=N/A speed=37.5x    frame=30128 fps=899 q=-0.0 size=N/A time=00:20:56.58 bitrate=N/A speed=37.5x    frame=30622 fps=900 q=-0.0 size=N/A time=00:21:17.19 bitrate=N/A speed=37.5x    frame=31136 fps=901 q=-0.0 size=N/A time=00:21:38.63 bitrate=N/A speed=37.6x    frame=31684 fps=904 q=-0.0 size=N/A time=00:22:01.48 bitrate=N/A speed=37.7x    frame=32206 fps=905 q=-0.0 size=N/A time=00:22:23.25 bitrate=N/A speed=37.8x    frame=32635 fps=904 q=-0.0 size=N/A time=00:22:41.15 bitrate=N/A speed=37.7x    frame=33032 fps=902 q=-0.0 size=N/A time=00:22:57.70 bitrate=N/A speed=37.6x    frame=33466 fps=901 q=-0.0 size=N/A time=00:23:15.81 bitrate=N/A speed=37.6x    frame=33884 fps=900 q=-0.0 size=N/A time=00:23:33.24 bitrate=N/A speed=37.5x    frame=34280 fps=898 q=-0.0 size=N/A time=00:23:49.76 bitrate=N/A speed=37.5x    frame=34783 fps=899 q=-0.0 size=N/A time=00:24:10.74 bitrate=N/A speed=37.5x    [Parsed_ssim_10 @ 000002a4913f63c0] SSIM Y:0.991014 (20.464529) U:0.993254 (21.709261) V:0.993299 (21.738896) All:0.991768 (20.845177)
[out#0/null @ 000002a491319f40] video:15144KiB audio:275616KiB subtitle:0KiB other streams:0KiB global headers:0KiB muxing overhead: unknown
frame=35244 fps=901 q=-0.0 Lsize=N/A time=00:24:29.95 bitrate=N/A speed=37.6x    
